<svg id="Layer_1" data-name="Layer 1" xmlns="http://www.w3.org/2000/svg" viewBox="0 0 902.37 226.41"><title>logo_white</title><g id="popcast.tv.br"><path d="M361.31,121.32a78.75,78.75,0,0,1-2.5,20.7,45,45,0,0,1-7.36,15.58,32.91,32.91,0,0,1-12,9.86,37.22,37.22,0,0,1-16.4,3.47,31.87,31.87,0,0,1-7.27-.78,27.84,27.84,0,0,1-6.53-2.44,38,38,0,0,1-6.33-4.2q-3.14-2.54-6.68-6V201.5a2.41,2.41,0,0,1-.39,1.37,2.89,2.89,0,0,1-1.28,1,9.07,9.07,0,0,1-2.45.59,33.85,33.85,0,0,1-4,.2,32.79,32.79,0,0,1-3.93-.2,9.82,9.82,0,0,1-2.5-.59,2.55,2.55,0,0,1-1.28-1,2.65,2.65,0,0,1-.34-1.37V78.74a2.94,2.94,0,0,1,.29-1.42,2.38,2.38,0,0,1,1.18-.93,7.68,7.68,0,0,1,2.26-.54,38.67,38.67,0,0,1,6.73,0,7.6,7.6,0,0,1,2.21.54,2.71,2.71,0,0,1,1.23.93,2.6,2.6,0,0,1,.34,1.42V90.56A93.5,93.5,0,0,1,302,83.43a46.59,46.59,0,0,1,7.51-5,35.49,35.49,0,0,1,7.76-3,33.5,33.5,0,0,1,8.39-1q9.62,0,16.4,3.71a30.84,30.84,0,0,1,11,10.16,45.21,45.21,0,0,1,6.23,15A80.74,80.74,0,0,1,361.31,121.32Zm-16.79,1.86a80.25,80.25,0,0,0-1-13A37.62,37.62,0,0,0,339.93,99a21,21,0,0,0-6.77-7.81,18.18,18.18,0,0,0-10.57-2.93,21.36,21.36,0,0,0-6.22.93,25.6,25.6,0,0,0-6.22,2.93,44.25,44.25,0,0,0-6.62,5.27,81.6,81.6,0,0,0-7.31,8.06v35A70,70,0,0,0,309,152.77a21.44,21.44,0,0,0,12.64,4.3,18.53,18.53,0,0,0,10.52-2.93,22.16,22.16,0,0,0,7.11-7.81,39,39,0,0,0,4-10.94A58.69,58.69,0,0,0,344.52,123.18Z" transform="translate(-1.6 0)" style="fill:#fff"/><path d="M468.2,121.71a65.52,65.52,0,0,1-2.85,19.78,43.58,43.58,0,0,1-8.49,15.58,38.48,38.48,0,0,1-14.14,10.21A49.36,49.36,0,0,1,423,170.93a51.22,51.22,0,0,1-19-3.22,34.7,34.7,0,0,1-13.5-9.37,39.66,39.66,0,0,1-8.05-14.94,69,69,0,0,1-2.65-19.92,66.56,66.56,0,0,1,2.8-19.78,43,43,0,0,1,8.44-15.58A38.08,38.08,0,0,1,405.16,78a49.87,49.87,0,0,1,19.73-3.61,51.22,51.22,0,0,1,19,3.22,34.72,34.72,0,0,1,13.5,9.38,40.23,40.23,0,0,1,8.1,14.94A67.47,67.47,0,0,1,468.2,121.71Zm-16.79,1.07a65.31,65.31,0,0,0-1.34-13.48,33.07,33.07,0,0,0-4.41-11.13,21.84,21.84,0,0,0-8.32-7.57,27.69,27.69,0,0,0-13.08-2.78,28.1,28.1,0,0,0-12.43,2.54,22.8,22.8,0,0,0-8.57,7.18,32.11,32.11,0,0,0-5,11,55.55,55.55,0,0,0-1.63,13.87A65.66,65.66,0,0,0,398,136a31.86,31.86,0,0,0,4.46,11.08,22.35,22.35,0,0,0,8.37,7.52,27.7,27.7,0,0,0,13.08,2.78,28.16,28.16,0,0,0,12.38-2.54,22.84,22.84,0,0,0,8.62-7.13,30.93,30.93,0,0,0,5-10.94A57.59,57.59,0,0,0,451.41,122.79Z" transform="translate(-1.6 0)" style="fill:#fff"/><path d="M573.31,121.32a78.75,78.75,0,0,1-2.5,20.7,45,45,0,0,1-7.36,15.58,32.9,32.9,0,0,1-12,9.86,37.21,37.21,0,0,1-16.4,3.47,31.88,31.88,0,0,1-7.27-.78,27.87,27.87,0,0,1-6.53-2.44,38,38,0,0,1-6.33-4.2q-3.14-2.54-6.68-6V201.5a2.41,2.41,0,0,1-.39,1.37,2.89,2.89,0,0,1-1.28,1,9.09,9.09,0,0,1-2.46.59,33.85,33.85,0,0,1-4,.2,32.8,32.8,0,0,1-3.93-.2,9.8,9.8,0,0,1-2.5-.59,2.55,2.55,0,0,1-1.28-1,2.64,2.64,0,0,1-.34-1.37V78.74a2.94,2.94,0,0,1,.29-1.42,2.38,2.38,0,0,1,1.18-.93,7.68,7.68,0,0,1,2.26-.54,38.67,38.67,0,0,1,6.73,0,7.59,7.59,0,0,1,2.21.54,2.71,2.71,0,0,1,1.23.93,2.6,2.6,0,0,1,.34,1.42V90.56A93.42,93.42,0,0,1,514,83.43a46.56,46.56,0,0,1,7.51-5,35.47,35.47,0,0,1,7.76-3,33.5,33.5,0,0,1,8.39-1q9.62,0,16.4,3.71a30.84,30.84,0,0,1,11,10.16,45.24,45.24,0,0,1,6.23,15A80.73,80.73,0,0,1,573.31,121.32Zm-16.79,1.86a80.25,80.25,0,0,0-1-13A37.59,37.59,0,0,0,551.93,99a21,21,0,0,0-6.77-7.81,18.18,18.18,0,0,0-10.57-2.93,21.35,21.35,0,0,0-6.22.93,25.62,25.62,0,0,0-6.22,2.93,44.27,44.27,0,0,0-6.62,5.27,81.48,81.48,0,0,0-7.31,8.06v35A70,70,0,0,0,521,152.77a21.45,21.45,0,0,0,12.64,4.3,18.53,18.53,0,0,0,10.52-2.93,22.16,22.16,0,0,0,7.11-7.81,39,39,0,0,0,4-10.94A58.72,58.72,0,0,0,556.52,123.18Z" transform="translate(-1.6 0)" style="fill:#fff"/><path d="M661.54,153.25q0,1.66-.1,2.88a10.35,10.35,0,0,1-.34,2.05,7.72,7.72,0,0,1-.59,1.46,9.6,9.6,0,0,1-1.57,1.86,24.21,24.21,0,0,1-4.17,3,40.26,40.26,0,0,1-6.63,3.22,50.06,50.06,0,0,1-8,2.29,44.72,44.72,0,0,1-8.93.88,42.9,42.9,0,0,1-16.89-3.12A31.85,31.85,0,0,1,602,158.67a41.38,41.38,0,0,1-7.56-14.75,70.8,70.8,0,0,1-2.6-20.17q0-13,3.19-22.31a42,42,0,0,1,8.74-15.28,34.54,34.54,0,0,1,13.06-8.84,45,45,0,0,1,16.25-2.88,42.46,42.46,0,0,1,8.2.78,45.21,45.21,0,0,1,7.32,2.05,32.54,32.54,0,0,1,5.94,2.93A23.67,23.67,0,0,1,658.3,83a12.74,12.74,0,0,1,1.62,1.86,6.68,6.68,0,0,1,.74,1.61,9.61,9.61,0,0,1,.39,2.1q0.1,1.17.1,2.93,0,3.81-.88,5.32a2.53,2.53,0,0,1-2.16,1.51,5.61,5.61,0,0,1-3.39-1.61,54.18,54.18,0,0,0-4.86-3.56,37.07,37.07,0,0,0-7.12-3.56A27.37,27.37,0,0,0,632.87,88Q621.19,88,615,97t-6.24,25.93a61,61,0,0,0,1.62,14.89,30.69,30.69,0,0,0,4.76,10.69,19.6,19.6,0,0,0,7.71,6.4,24.76,24.76,0,0,0,10.46,2.1,25.4,25.4,0,0,0,9.82-1.76,41.24,41.24,0,0,0,7.32-3.86q3.09-2.1,5.2-3.81t3.29-1.71a1.84,1.84,0,0,1,1.18.39,3,3,0,0,1,.83,1.32,9.73,9.73,0,0,1,.49,2.34A33,33,0,0,1,661.54,153.25Z" transform="translate(-1.6 0)" style="fill:#fff"/><path d="M749.59,166.73a2.05,2.05,0,0,1-.79,1.76,5.54,5.54,0,0,1-2.16.88,20.73,20.73,0,0,1-4,.29,22.48,22.48,0,0,1-4.07-.29,4.84,4.84,0,0,1-2.21-.88,2.18,2.18,0,0,1-.69-1.76v-8.79a43.63,43.63,0,0,1-12.91,9.57,34.39,34.39,0,0,1-15.07,3.42A41.27,41.27,0,0,1,695,169.12a27.31,27.31,0,0,1-9.62-5.22,23.43,23.43,0,0,1-6.19-8.4A27.67,27.67,0,0,1,677,144.17a26.09,26.09,0,0,1,3-12.89,25.23,25.23,0,0,1,8.74-9.08,43.1,43.1,0,0,1,13.94-5.42A87,87,0,0,1,721.31,115h12.17v-6.84a33.84,33.84,0,0,0-1.08-9,15.38,15.38,0,0,0-3.49-6.49,15,15,0,0,0-6.23-3.91,29.21,29.21,0,0,0-9.43-1.32,37.73,37.73,0,0,0-10.75,1.42A57.76,57.76,0,0,0,694.16,92q-3.59,1.71-6,3.13a8.29,8.29,0,0,1-3.58,1.42,2.42,2.42,0,0,1-1.37-.39,3.32,3.32,0,0,1-1-1.17,6,6,0,0,1-.64-2,16.73,16.73,0,0,1-.2-2.69,17.06,17.06,0,0,1,.34-3.86,5.58,5.58,0,0,1,1.67-2.69,21.41,21.41,0,0,1,4.57-3,50.42,50.42,0,0,1,7.46-3.12,68.32,68.32,0,0,1,9.23-2.34,55.43,55.43,0,0,1,10.11-.93,53.36,53.36,0,0,1,16.2,2.15,26.26,26.26,0,0,1,10.8,6.3,24.37,24.37,0,0,1,6,10.3,49.65,49.65,0,0,1,1.87,14.36v59.28Zm-16.1-40.14H719.64a52.51,52.51,0,0,0-11.59,1.12,23.94,23.94,0,0,0-8.15,3.32,13.76,13.76,0,0,0-4.76,5.27,15.75,15.75,0,0,0-1.52,7.08q0,6.84,4.37,10.89t12.22,4.05A22.83,22.83,0,0,0,722,155.11a50.9,50.9,0,0,0,11.44-9.86V126.59Z" transform="translate(-1.6 0)" style="fill:#fff"/><path d="M834.49,142.71a27.68,27.68,0,0,1-2.5,12,24.47,24.47,0,0,1-7.12,8.89,32.2,32.2,0,0,1-11,5.47,50.19,50.19,0,0,1-14,1.86,54.08,54.08,0,0,1-16.64-2.59,39.78,39.78,0,0,1-5.74-2.34,16.9,16.9,0,0,1-3.44-2.2,5.61,5.61,0,0,1-1.57-2.73,18.47,18.47,0,0,1-.49-4.79,20.8,20.8,0,0,1,.2-3.12,10.42,10.42,0,0,1,.49-2.05,2.18,2.18,0,0,1,.83-1.12,2.25,2.25,0,0,1,1.23-.34,7,7,0,0,1,3.19,1.32q2.11,1.32,5.2,2.88a48.07,48.07,0,0,0,7.31,2.88,32.63,32.63,0,0,0,9.72,1.32,29.33,29.33,0,0,0,7.46-.88,18.13,18.13,0,0,0,5.79-2.59,11.54,11.54,0,0,0,3.78-4.35,13.76,13.76,0,0,0,1.33-6.25,10.08,10.08,0,0,0-1.92-6.25,18.4,18.4,0,0,0-5.06-4.49,42.07,42.07,0,0,0-7.07-3.47q-3.93-1.51-8.1-3.17a83.41,83.41,0,0,1-8.15-3.76,31.14,31.14,0,0,1-7.12-5.13,23.36,23.36,0,0,1-5.06-7.23,24.1,24.1,0,0,1-1.91-10.06,25.08,25.08,0,0,1,2-9.91,23,23,0,0,1,6-8.3,30.31,30.31,0,0,1,10.06-5.71,42,42,0,0,1,14.09-2.15,43.16,43.16,0,0,1,7.07.59,48.79,48.79,0,0,1,6.38,1.46,30.83,30.83,0,0,1,4.86,1.9,21.25,21.25,0,0,1,3,1.81A5.37,5.37,0,0,1,829,81.48a4.24,4.24,0,0,1,.49,1.32q0.15,0.73.29,1.81a19.81,19.81,0,0,1,.15,2.64,24.31,24.31,0,0,1-.15,2.88,7.16,7.16,0,0,1-.49,2,2.6,2.6,0,0,1-.83,1.12,1.84,1.84,0,0,1-1.08.34,5.44,5.44,0,0,1-2.55-1.07,36.14,36.14,0,0,0-4.32-2.29,48.13,48.13,0,0,0-6.23-2.29,28.6,28.6,0,0,0-8.2-1.07,25.73,25.73,0,0,0-7.27.93,14,14,0,0,0-5.16,2.64,11.15,11.15,0,0,0-3,4.05,12.47,12.47,0,0,0-1,5.08,10.26,10.26,0,0,0,2,6.4,18.67,18.67,0,0,0,5.11,4.54,42.93,42.93,0,0,0,7.17,3.52q4,1.56,8.2,3.22t8.25,3.71a30.88,30.88,0,0,1,7.22,5,22.52,22.52,0,0,1,5.06,7A22.92,22.92,0,0,1,834.49,142.71Z" transform="translate(-1.6 0)" style="fill:#fff"/><path d="M904,160.19a20.41,20.41,0,0,1-.39,4.49,5,5,0,0,1-1.18,2.44,7.72,7.72,0,0,1-2.36,1.46,19.34,19.34,0,0,1-3.58,1.12q-2,.44-4.27.73a35.09,35.09,0,0,1-4.52.29,34.2,34.2,0,0,1-11.78-1.81,19,19,0,0,1-8.05-5.47,22.45,22.45,0,0,1-4.57-9.28,54.23,54.23,0,0,1-1.42-13.23V89.58H849.48A2.65,2.65,0,0,1,847.12,88a10.84,10.84,0,0,1-.88-5.08,16.78,16.78,0,0,1,.25-3.12,8.88,8.88,0,0,1,.64-2.1,2.46,2.46,0,0,1,1-1.17,3,3,0,0,1,1.42-.34h12.27V55.3a2.46,2.46,0,0,1,.34-1.27,2.79,2.79,0,0,1,1.28-1,8.45,8.45,0,0,1,2.5-.63,32.8,32.8,0,0,1,3.93-.2,33.85,33.85,0,0,1,4,.2,7.86,7.86,0,0,1,2.46.63,3.21,3.21,0,0,1,1.28,1A2.25,2.25,0,0,1,878,55.3V76.2h22.68a2.69,2.69,0,0,1,1.37.34,2.87,2.87,0,0,1,1,1.17,6.7,6.7,0,0,1,.64,2.1,20.94,20.94,0,0,1,.2,3.13,10.84,10.84,0,0,1-.88,5.08,2.65,2.65,0,0,1-2.36,1.56H878v49q0,9.08,2.7,13.72t9.67,4.64a16.75,16.75,0,0,0,4-.44q1.77-.44,3.14-0.93t2.36-.93a4.39,4.39,0,0,1,1.77-.44,1.91,1.91,0,0,1,.93.24,1.63,1.63,0,0,1,.69.93,11.43,11.43,0,0,1,.44,1.86A18.2,18.2,0,0,1,904,160.19Z" transform="translate(-1.6 0)" style="fill:#fff"/></g><g id="Composite_Path" data-name="Composite Path"><path d="M128.35,46.87h0a47.17,47.17,0,0,0-15.53-1A70.19,70.19,0,0,0,68.15,66.48c-16.94,16.89-23.56,39.7-19.52,60,0.37,2.05,4,2.28,4.58.29a120.14,120.14,0,0,1,29-46.28A121.71,121.71,0,0,1,128.65,51.3C130.41,50.52,130.2,47.41,128.35,46.87Zm33.57,86.23a18.66,18.66,0,0,0-13.31-5.45A18.79,18.79,0,1,0,161.93,133.1Z" transform="translate(-1.6 0)" style="fill:#fff;fill-rule:evenodd"/></g><g id="Composite_Path-2" data-name="Composite Path"><path d="M115.19,0C52.46,0,1.6,50.68,1.6,113.21S52.46,226.41,115.19,226.41s113.59-50.68,113.59-113.21S177.92,0,115.19,0Zm0,198.11a84.9,84.9,0,1,1,85.19-84.9A85,85,0,0,1,115.19,198.11Z" transform="translate(-1.6 0)" style="fill:#fff;fill-rule:evenodd"/></g></svg>